<mxfile host="app.diagrams.net" agent="Mozilla/5.0 (X11; Ubuntu; Linux x86_64; rv:136.0) Gecko/20100101 Firefox/136.0" version="26.1.0">
  <diagram name="Page-1" id="9oAyltX0Z4I_NYAaA5z0">
    <mxGraphModel dx="1137" dy="638" grid="1" gridSize="10" guides="1" tooltips="1" connect="1" arrows="1" fold="1" page="1" pageScale="1" pageWidth="850" pageHeight="1100" math="0" shadow="0">
      <root>
        <mxCell id="0" />
        <mxCell id="1" parent="0" />
        <mxCell id="psgPVx_Mr6GsPkw7rHNx-107" value="&lt;b&gt;A3CAgent&lt;/b&gt;" style="rounded=0;whiteSpace=wrap;html=1;fillColor=#dae8fc;strokeColor=#6c8ebf;align=center;verticalAlign=top;" vertex="1" parent="1">
          <mxGeometry x="120" y="100" width="370" height="614" as="geometry" />
        </mxCell>
        <mxCell id="psgPVx_Mr6GsPkw7rHNx-90" value="" style="group" vertex="1" connectable="0" parent="1">
          <mxGeometry x="130" y="330" width="170" height="175" as="geometry" />
        </mxCell>
        <mxCell id="psgPVx_Mr6GsPkw7rHNx-1" value="RMSPropAsync" style="rounded=0;whiteSpace=wrap;html=1;fillColor=#dae8fc;strokeColor=#6c8ebf;align=center;verticalAlign=top;" vertex="1" parent="psgPVx_Mr6GsPkw7rHNx-90">
          <mxGeometry width="170" height="175" as="geometry" />
        </mxCell>
        <mxCell id="psgPVx_Mr6GsPkw7rHNx-23" value="Mutexes" style="rounded=0;whiteSpace=wrap;html=1;fillColor=#dae8fc;strokeColor=#6c8ebf;align=center;verticalAlign=top;" vertex="1" parent="psgPVx_Mr6GsPkw7rHNx-90">
          <mxGeometry x="100" y="30" width="60" height="135" as="geometry" />
        </mxCell>
        <mxCell id="psgPVx_Mr6GsPkw7rHNx-16" value="Parameters" style="rounded=0;whiteSpace=wrap;html=1;fillColor=#dae8fc;strokeColor=#6c8ebf;align=center;verticalAlign=top;" vertex="1" parent="psgPVx_Mr6GsPkw7rHNx-90">
          <mxGeometry x="10" y="30" width="80" height="135" as="geometry" />
        </mxCell>
        <mxCell id="psgPVx_Mr6GsPkw7rHNx-24" value="0" style="rounded=0;whiteSpace=wrap;html=1;fillColor=#f8cecc;strokeColor=#b85450;align=center;verticalAlign=middle;" vertex="1" parent="psgPVx_Mr6GsPkw7rHNx-90">
          <mxGeometry x="120" y="60" width="20" height="20" as="geometry" />
        </mxCell>
        <mxCell id="psgPVx_Mr6GsPkw7rHNx-25" value="1" style="rounded=0;whiteSpace=wrap;html=1;fillColor=#f8cecc;strokeColor=#b85450;align=center;verticalAlign=middle;" vertex="1" parent="psgPVx_Mr6GsPkw7rHNx-90">
          <mxGeometry x="120" y="85" width="20" height="20" as="geometry" />
        </mxCell>
        <mxCell id="psgPVx_Mr6GsPkw7rHNx-26" value="2" style="rounded=0;whiteSpace=wrap;html=1;fillColor=#dae8fc;strokeColor=#6c8ebf;align=center;verticalAlign=middle;" vertex="1" parent="psgPVx_Mr6GsPkw7rHNx-90">
          <mxGeometry x="120" y="110" width="20" height="20" as="geometry" />
        </mxCell>
        <mxCell id="psgPVx_Mr6GsPkw7rHNx-27" value="3" style="rounded=0;whiteSpace=wrap;html=1;fillColor=#d5e8d4;strokeColor=#82b366;align=center;verticalAlign=middle;" vertex="1" parent="psgPVx_Mr6GsPkw7rHNx-90">
          <mxGeometry x="120" y="135" width="20" height="20" as="geometry" />
        </mxCell>
        <mxCell id="psgPVx_Mr6GsPkw7rHNx-33" value="" style="group" vertex="1" connectable="0" parent="psgPVx_Mr6GsPkw7rHNx-90">
          <mxGeometry x="20" y="60" width="60" height="95" as="geometry" />
        </mxCell>
        <mxCell id="psgPVx_Mr6GsPkw7rHNx-17" value="module 0" style="rounded=0;whiteSpace=wrap;html=1;fillColor=#dae8fc;strokeColor=#6c8ebf;align=center;verticalAlign=middle;" vertex="1" parent="psgPVx_Mr6GsPkw7rHNx-33">
          <mxGeometry width="60" height="20" as="geometry" />
        </mxCell>
        <mxCell id="psgPVx_Mr6GsPkw7rHNx-18" value="module 1" style="rounded=0;whiteSpace=wrap;html=1;fillColor=#dae8fc;strokeColor=#6c8ebf;align=center;verticalAlign=middle;" vertex="1" parent="psgPVx_Mr6GsPkw7rHNx-33">
          <mxGeometry y="25" width="60" height="20" as="geometry" />
        </mxCell>
        <mxCell id="psgPVx_Mr6GsPkw7rHNx-20" value="module 2" style="rounded=0;whiteSpace=wrap;html=1;fillColor=#dae8fc;strokeColor=#6c8ebf;align=center;verticalAlign=middle;" vertex="1" parent="psgPVx_Mr6GsPkw7rHNx-33">
          <mxGeometry y="50" width="60" height="20" as="geometry" />
        </mxCell>
        <mxCell id="psgPVx_Mr6GsPkw7rHNx-22" value="module 3" style="rounded=0;whiteSpace=wrap;html=1;fillColor=#dae8fc;strokeColor=#6c8ebf;align=center;verticalAlign=middle;" vertex="1" parent="psgPVx_Mr6GsPkw7rHNx-33">
          <mxGeometry y="75" width="60" height="20" as="geometry" />
        </mxCell>
        <mxCell id="psgPVx_Mr6GsPkw7rHNx-51" style="edgeStyle=orthogonalEdgeStyle;rounded=0;orthogonalLoop=1;jettySize=auto;html=1;exitX=0;exitY=0.5;exitDx=0;exitDy=0;entryX=1;entryY=0.5;entryDx=0;entryDy=0;" edge="1" parent="psgPVx_Mr6GsPkw7rHNx-90" source="psgPVx_Mr6GsPkw7rHNx-24" target="psgPVx_Mr6GsPkw7rHNx-17">
          <mxGeometry relative="1" as="geometry" />
        </mxCell>
        <mxCell id="psgPVx_Mr6GsPkw7rHNx-53" style="edgeStyle=orthogonalEdgeStyle;rounded=0;orthogonalLoop=1;jettySize=auto;html=1;exitX=0;exitY=0.5;exitDx=0;exitDy=0;entryX=1;entryY=0.5;entryDx=0;entryDy=0;" edge="1" parent="psgPVx_Mr6GsPkw7rHNx-90" source="psgPVx_Mr6GsPkw7rHNx-25" target="psgPVx_Mr6GsPkw7rHNx-18">
          <mxGeometry relative="1" as="geometry" />
        </mxCell>
        <mxCell id="psgPVx_Mr6GsPkw7rHNx-65" style="edgeStyle=orthogonalEdgeStyle;rounded=0;orthogonalLoop=1;jettySize=auto;html=1;exitX=1;exitY=0.5;exitDx=0;exitDy=0;entryX=0;entryY=0.5;entryDx=0;entryDy=0;" edge="1" parent="psgPVx_Mr6GsPkw7rHNx-90" source="psgPVx_Mr6GsPkw7rHNx-22" target="psgPVx_Mr6GsPkw7rHNx-27">
          <mxGeometry relative="1" as="geometry" />
        </mxCell>
        <mxCell id="psgPVx_Mr6GsPkw7rHNx-41" value="" style="group" vertex="1" connectable="0" parent="1">
          <mxGeometry x="380" y="130" width="100" height="175" as="geometry" />
        </mxCell>
        <mxCell id="psgPVx_Mr6GsPkw7rHNx-34" value="A2CAgent" style="rounded=0;whiteSpace=wrap;html=1;fillColor=#dae8fc;strokeColor=#6c8ebf;align=center;verticalAlign=top;" vertex="1" parent="psgPVx_Mr6GsPkw7rHNx-41">
          <mxGeometry width="100" height="175" as="geometry" />
        </mxCell>
        <mxCell id="psgPVx_Mr6GsPkw7rHNx-35" value="Parameters" style="rounded=0;whiteSpace=wrap;html=1;fillColor=#dae8fc;strokeColor=#6c8ebf;align=center;verticalAlign=top;" vertex="1" parent="psgPVx_Mr6GsPkw7rHNx-41">
          <mxGeometry x="10" y="30" width="80" height="135" as="geometry" />
        </mxCell>
        <mxCell id="psgPVx_Mr6GsPkw7rHNx-36" value="" style="group" vertex="1" connectable="0" parent="psgPVx_Mr6GsPkw7rHNx-41">
          <mxGeometry x="20" y="60" width="60" height="95" as="geometry" />
        </mxCell>
        <mxCell id="psgPVx_Mr6GsPkw7rHNx-37" value="module 0" style="rounded=0;whiteSpace=wrap;html=1;fillColor=#dae8fc;strokeColor=#6c8ebf;align=center;verticalAlign=middle;" vertex="1" parent="psgPVx_Mr6GsPkw7rHNx-36">
          <mxGeometry width="60" height="20" as="geometry" />
        </mxCell>
        <mxCell id="psgPVx_Mr6GsPkw7rHNx-38" value="module 1" style="rounded=0;whiteSpace=wrap;html=1;fillColor=#dae8fc;strokeColor=#6c8ebf;align=center;verticalAlign=middle;" vertex="1" parent="psgPVx_Mr6GsPkw7rHNx-36">
          <mxGeometry y="25" width="60" height="20" as="geometry" />
        </mxCell>
        <mxCell id="psgPVx_Mr6GsPkw7rHNx-39" value="module 2" style="rounded=0;whiteSpace=wrap;html=1;fillColor=#dae8fc;strokeColor=#6c8ebf;align=center;verticalAlign=middle;" vertex="1" parent="psgPVx_Mr6GsPkw7rHNx-36">
          <mxGeometry y="50" width="60" height="20" as="geometry" />
        </mxCell>
        <mxCell id="psgPVx_Mr6GsPkw7rHNx-40" value="module 3" style="rounded=0;whiteSpace=wrap;html=1;fillColor=#dae8fc;strokeColor=#6c8ebf;align=center;verticalAlign=middle;" vertex="1" parent="psgPVx_Mr6GsPkw7rHNx-36">
          <mxGeometry y="75" width="60" height="20" as="geometry" />
        </mxCell>
        <mxCell id="psgPVx_Mr6GsPkw7rHNx-42" value="" style="group" vertex="1" connectable="0" parent="1">
          <mxGeometry x="380" y="330" width="100" height="175" as="geometry" />
        </mxCell>
        <mxCell id="psgPVx_Mr6GsPkw7rHNx-43" value="A2CAgent" style="rounded=0;whiteSpace=wrap;html=1;fillColor=#dae8fc;strokeColor=#6c8ebf;align=center;verticalAlign=top;" vertex="1" parent="psgPVx_Mr6GsPkw7rHNx-42">
          <mxGeometry width="100" height="175" as="geometry" />
        </mxCell>
        <mxCell id="psgPVx_Mr6GsPkw7rHNx-44" value="Parameters" style="rounded=0;whiteSpace=wrap;html=1;fillColor=#dae8fc;strokeColor=#6c8ebf;align=center;verticalAlign=top;" vertex="1" parent="psgPVx_Mr6GsPkw7rHNx-42">
          <mxGeometry x="10" y="30" width="80" height="135" as="geometry" />
        </mxCell>
        <mxCell id="psgPVx_Mr6GsPkw7rHNx-45" value="" style="group" vertex="1" connectable="0" parent="psgPVx_Mr6GsPkw7rHNx-42">
          <mxGeometry x="20" y="60" width="60" height="95" as="geometry" />
        </mxCell>
        <mxCell id="psgPVx_Mr6GsPkw7rHNx-46" value="module 0" style="rounded=0;whiteSpace=wrap;html=1;fillColor=#dae8fc;strokeColor=#6c8ebf;align=center;verticalAlign=middle;" vertex="1" parent="psgPVx_Mr6GsPkw7rHNx-45">
          <mxGeometry width="60" height="20" as="geometry" />
        </mxCell>
        <mxCell id="psgPVx_Mr6GsPkw7rHNx-47" value="module 1" style="rounded=0;whiteSpace=wrap;html=1;fillColor=#dae8fc;strokeColor=#6c8ebf;align=center;verticalAlign=middle;" vertex="1" parent="psgPVx_Mr6GsPkw7rHNx-45">
          <mxGeometry y="25" width="60" height="20" as="geometry" />
        </mxCell>
        <mxCell id="psgPVx_Mr6GsPkw7rHNx-48" value="module 2" style="rounded=0;whiteSpace=wrap;html=1;fillColor=#dae8fc;strokeColor=#6c8ebf;align=center;verticalAlign=middle;" vertex="1" parent="psgPVx_Mr6GsPkw7rHNx-45">
          <mxGeometry y="50" width="60" height="20" as="geometry" />
        </mxCell>
        <mxCell id="psgPVx_Mr6GsPkw7rHNx-49" value="module 3" style="rounded=0;whiteSpace=wrap;html=1;fillColor=#dae8fc;strokeColor=#6c8ebf;align=center;verticalAlign=middle;" vertex="1" parent="psgPVx_Mr6GsPkw7rHNx-45">
          <mxGeometry y="75" width="60" height="20" as="geometry" />
        </mxCell>
        <mxCell id="psgPVx_Mr6GsPkw7rHNx-50" style="edgeStyle=elbowEdgeStyle;rounded=0;orthogonalLoop=1;jettySize=auto;html=1;exitX=0;exitY=0.5;exitDx=0;exitDy=0;entryX=1;entryY=0.5;entryDx=0;entryDy=0;" edge="1" parent="1" source="psgPVx_Mr6GsPkw7rHNx-37" target="psgPVx_Mr6GsPkw7rHNx-24">
          <mxGeometry relative="1" as="geometry">
            <Array as="points">
              <mxPoint x="360" y="300" />
            </Array>
          </mxGeometry>
        </mxCell>
        <mxCell id="psgPVx_Mr6GsPkw7rHNx-54" value="Write" style="edgeLabel;html=1;align=center;verticalAlign=middle;resizable=0;points=[];fillColor=#99C1F1;labelBackgroundColor=#DAE8FC;" vertex="1" connectable="0" parent="psgPVx_Mr6GsPkw7rHNx-50">
          <mxGeometry x="0.1143" relative="1" as="geometry">
            <mxPoint y="-69" as="offset" />
          </mxGeometry>
        </mxCell>
        <mxCell id="psgPVx_Mr6GsPkw7rHNx-52" style="edgeStyle=orthogonalEdgeStyle;rounded=0;orthogonalLoop=1;jettySize=auto;html=1;exitX=0;exitY=0.5;exitDx=0;exitDy=0;entryX=1;entryY=0.5;entryDx=0;entryDy=0;" edge="1" parent="1" source="psgPVx_Mr6GsPkw7rHNx-47" target="psgPVx_Mr6GsPkw7rHNx-25">
          <mxGeometry relative="1" as="geometry">
            <Array as="points">
              <mxPoint x="400" y="425" />
              <mxPoint x="400" y="385" />
            </Array>
          </mxGeometry>
        </mxCell>
        <mxCell id="psgPVx_Mr6GsPkw7rHNx-55" value="Write" style="edgeLabel;html=1;align=center;verticalAlign=middle;resizable=0;points=[];fillColor=#99C1F1;labelBackgroundColor=#DAE8FC;spacingLeft=0;spacingRight=0;" vertex="1" connectable="0" parent="psgPVx_Mr6GsPkw7rHNx-52">
          <mxGeometry x="0.0416" y="1" relative="1" as="geometry">
            <mxPoint x="8" y="-1" as="offset" />
          </mxGeometry>
        </mxCell>
        <mxCell id="psgPVx_Mr6GsPkw7rHNx-56" value="" style="group" vertex="1" connectable="0" parent="1">
          <mxGeometry x="380" y="530" width="100" height="175" as="geometry" />
        </mxCell>
        <mxCell id="psgPVx_Mr6GsPkw7rHNx-57" value="A2CAgent" style="rounded=0;whiteSpace=wrap;html=1;fillColor=#dae8fc;strokeColor=#6c8ebf;align=center;verticalAlign=top;" vertex="1" parent="psgPVx_Mr6GsPkw7rHNx-56">
          <mxGeometry width="100" height="175" as="geometry" />
        </mxCell>
        <mxCell id="psgPVx_Mr6GsPkw7rHNx-58" value="Parameters" style="rounded=0;whiteSpace=wrap;html=1;fillColor=#dae8fc;strokeColor=#6c8ebf;align=center;verticalAlign=top;" vertex="1" parent="psgPVx_Mr6GsPkw7rHNx-56">
          <mxGeometry x="10" y="30" width="80" height="135" as="geometry" />
        </mxCell>
        <mxCell id="psgPVx_Mr6GsPkw7rHNx-59" value="" style="group" vertex="1" connectable="0" parent="psgPVx_Mr6GsPkw7rHNx-56">
          <mxGeometry x="20" y="60" width="60" height="95" as="geometry" />
        </mxCell>
        <mxCell id="psgPVx_Mr6GsPkw7rHNx-60" value="module 0" style="rounded=0;whiteSpace=wrap;html=1;fillColor=#dae8fc;strokeColor=#6c8ebf;align=center;verticalAlign=middle;" vertex="1" parent="psgPVx_Mr6GsPkw7rHNx-59">
          <mxGeometry width="60" height="20" as="geometry" />
        </mxCell>
        <mxCell id="psgPVx_Mr6GsPkw7rHNx-61" value="module 1" style="rounded=0;whiteSpace=wrap;html=1;fillColor=#dae8fc;strokeColor=#6c8ebf;align=center;verticalAlign=middle;" vertex="1" parent="psgPVx_Mr6GsPkw7rHNx-59">
          <mxGeometry y="25" width="60" height="20" as="geometry" />
        </mxCell>
        <mxCell id="psgPVx_Mr6GsPkw7rHNx-62" value="module 2" style="rounded=0;whiteSpace=wrap;html=1;fillColor=#dae8fc;strokeColor=#6c8ebf;align=center;verticalAlign=middle;" vertex="1" parent="psgPVx_Mr6GsPkw7rHNx-59">
          <mxGeometry y="50" width="60" height="20" as="geometry" />
        </mxCell>
        <mxCell id="psgPVx_Mr6GsPkw7rHNx-63" value="module 3" style="rounded=0;whiteSpace=wrap;html=1;fillColor=#dae8fc;strokeColor=#6c8ebf;align=center;verticalAlign=middle;" vertex="1" parent="psgPVx_Mr6GsPkw7rHNx-59">
          <mxGeometry y="75" width="60" height="20" as="geometry" />
        </mxCell>
        <mxCell id="psgPVx_Mr6GsPkw7rHNx-68" value="" style="group" vertex="1" connectable="0" parent="1">
          <mxGeometry x="200" y="530" width="100" height="175" as="geometry" />
        </mxCell>
        <mxCell id="psgPVx_Mr6GsPkw7rHNx-69" value="A2CAgent" style="rounded=0;whiteSpace=wrap;html=1;fillColor=#dae8fc;strokeColor=#6c8ebf;align=center;verticalAlign=top;" vertex="1" parent="psgPVx_Mr6GsPkw7rHNx-68">
          <mxGeometry width="100" height="175" as="geometry" />
        </mxCell>
        <mxCell id="psgPVx_Mr6GsPkw7rHNx-70" value="Parameters" style="rounded=0;whiteSpace=wrap;html=1;fillColor=#dae8fc;strokeColor=#6c8ebf;align=center;verticalAlign=top;" vertex="1" parent="psgPVx_Mr6GsPkw7rHNx-68">
          <mxGeometry x="10" y="30" width="80" height="135" as="geometry" />
        </mxCell>
        <mxCell id="psgPVx_Mr6GsPkw7rHNx-71" value="" style="group" vertex="1" connectable="0" parent="psgPVx_Mr6GsPkw7rHNx-68">
          <mxGeometry x="20" y="60" width="60" height="95" as="geometry" />
        </mxCell>
        <mxCell id="psgPVx_Mr6GsPkw7rHNx-72" value="module 0" style="rounded=0;whiteSpace=wrap;html=1;fillColor=#dae8fc;strokeColor=#6c8ebf;align=center;verticalAlign=middle;" vertex="1" parent="psgPVx_Mr6GsPkw7rHNx-71">
          <mxGeometry width="60" height="20" as="geometry" />
        </mxCell>
        <mxCell id="psgPVx_Mr6GsPkw7rHNx-73" value="module 1" style="rounded=0;whiteSpace=wrap;html=1;fillColor=#dae8fc;strokeColor=#6c8ebf;align=center;verticalAlign=middle;" vertex="1" parent="psgPVx_Mr6GsPkw7rHNx-71">
          <mxGeometry y="25" width="60" height="20" as="geometry" />
        </mxCell>
        <mxCell id="psgPVx_Mr6GsPkw7rHNx-74" value="module 2" style="rounded=0;whiteSpace=wrap;html=1;fillColor=#dae8fc;strokeColor=#6c8ebf;align=center;verticalAlign=middle;" vertex="1" parent="psgPVx_Mr6GsPkw7rHNx-71">
          <mxGeometry y="50" width="60" height="20" as="geometry" />
        </mxCell>
        <mxCell id="psgPVx_Mr6GsPkw7rHNx-75" value="module 3" style="rounded=0;whiteSpace=wrap;html=1;fillColor=#dae8fc;strokeColor=#6c8ebf;align=center;verticalAlign=middle;" vertex="1" parent="psgPVx_Mr6GsPkw7rHNx-71">
          <mxGeometry y="75" width="60" height="20" as="geometry" />
        </mxCell>
        <mxCell id="psgPVx_Mr6GsPkw7rHNx-66" style="edgeStyle=elbowEdgeStyle;rounded=0;orthogonalLoop=1;jettySize=auto;html=1;exitX=1;exitY=0.5;exitDx=0;exitDy=0;entryX=0;entryY=0.5;entryDx=0;entryDy=0;" edge="1" parent="1" source="psgPVx_Mr6GsPkw7rHNx-27" target="psgPVx_Mr6GsPkw7rHNx-63">
          <mxGeometry relative="1" as="geometry">
            <Array as="points">
              <mxPoint x="360" y="550" />
            </Array>
          </mxGeometry>
        </mxCell>
        <mxCell id="psgPVx_Mr6GsPkw7rHNx-67" value="Read" style="edgeLabel;html=1;align=center;verticalAlign=middle;resizable=0;points=[];fillColor=#99C1F1;labelBackgroundColor=#DAE8FC;" vertex="1" connectable="0" parent="psgPVx_Mr6GsPkw7rHNx-66">
          <mxGeometry x="-0.0085" y="2" relative="1" as="geometry">
            <mxPoint y="22" as="offset" />
          </mxGeometry>
        </mxCell>
        <mxCell id="psgPVx_Mr6GsPkw7rHNx-76" style="edgeStyle=elbowEdgeStyle;rounded=0;orthogonalLoop=1;jettySize=auto;html=1;exitX=1;exitY=0.5;exitDx=0;exitDy=0;entryX=1;entryY=0.5;entryDx=0;entryDy=0;" edge="1" parent="1" source="psgPVx_Mr6GsPkw7rHNx-27" target="psgPVx_Mr6GsPkw7rHNx-75">
          <mxGeometry relative="1" as="geometry">
            <Array as="points">
              <mxPoint x="330" y="560" />
            </Array>
          </mxGeometry>
        </mxCell>
        <mxCell id="psgPVx_Mr6GsPkw7rHNx-79" value="Read" style="edgeLabel;html=1;align=center;verticalAlign=top;resizable=0;points=[];fillColor=#dae8fc;rounded=0;strokeColor=#6c8ebf;fontFamily=Helvetica;fontSize=12;fontColor=default;labelBackgroundColor=#DAE8FC;" vertex="1" connectable="0" parent="psgPVx_Mr6GsPkw7rHNx-76">
          <mxGeometry x="0.046" y="1" relative="1" as="geometry">
            <mxPoint as="offset" />
          </mxGeometry>
        </mxCell>
        <mxCell id="psgPVx_Mr6GsPkw7rHNx-80" value="" style="group" vertex="1" connectable="0" parent="1">
          <mxGeometry x="200" y="130" width="100" height="175" as="geometry" />
        </mxCell>
        <mxCell id="psgPVx_Mr6GsPkw7rHNx-81" value="A2CAgent" style="rounded=0;whiteSpace=wrap;html=1;fillColor=#dae8fc;strokeColor=#6c8ebf;align=center;verticalAlign=top;" vertex="1" parent="psgPVx_Mr6GsPkw7rHNx-80">
          <mxGeometry width="100" height="175" as="geometry" />
        </mxCell>
        <mxCell id="psgPVx_Mr6GsPkw7rHNx-82" value="Parameters" style="rounded=0;whiteSpace=wrap;html=1;fillColor=#dae8fc;strokeColor=#6c8ebf;align=center;verticalAlign=top;" vertex="1" parent="psgPVx_Mr6GsPkw7rHNx-80">
          <mxGeometry x="10" y="30" width="80" height="135" as="geometry" />
        </mxCell>
        <mxCell id="psgPVx_Mr6GsPkw7rHNx-83" value="" style="group" vertex="1" connectable="0" parent="psgPVx_Mr6GsPkw7rHNx-80">
          <mxGeometry x="20" y="60" width="60" height="95" as="geometry" />
        </mxCell>
        <mxCell id="psgPVx_Mr6GsPkw7rHNx-84" value="module 0" style="rounded=0;whiteSpace=wrap;html=1;fillColor=#dae8fc;strokeColor=#6c8ebf;align=center;verticalAlign=middle;" vertex="1" parent="psgPVx_Mr6GsPkw7rHNx-83">
          <mxGeometry width="60" height="20" as="geometry" />
        </mxCell>
        <mxCell id="psgPVx_Mr6GsPkw7rHNx-85" value="module 1" style="rounded=0;whiteSpace=wrap;html=1;fillColor=#dae8fc;strokeColor=#6c8ebf;align=center;verticalAlign=middle;" vertex="1" parent="psgPVx_Mr6GsPkw7rHNx-83">
          <mxGeometry y="25" width="60" height="20" as="geometry" />
        </mxCell>
        <mxCell id="psgPVx_Mr6GsPkw7rHNx-86" value="module 2" style="rounded=0;whiteSpace=wrap;html=1;fillColor=#dae8fc;strokeColor=#6c8ebf;align=center;verticalAlign=middle;" vertex="1" parent="psgPVx_Mr6GsPkw7rHNx-83">
          <mxGeometry y="50" width="60" height="20" as="geometry" />
        </mxCell>
        <mxCell id="psgPVx_Mr6GsPkw7rHNx-87" value="module 3" style="rounded=0;whiteSpace=wrap;html=1;fillColor=#dae8fc;strokeColor=#6c8ebf;align=center;verticalAlign=middle;" vertex="1" parent="psgPVx_Mr6GsPkw7rHNx-83">
          <mxGeometry y="75" width="60" height="20" as="geometry" />
        </mxCell>
        <mxCell id="psgPVx_Mr6GsPkw7rHNx-88" style="edgeStyle=elbowEdgeStyle;rounded=0;orthogonalLoop=1;jettySize=auto;html=1;exitX=1;exitY=0.5;exitDx=0;exitDy=0;entryX=1;entryY=0.5;entryDx=0;entryDy=0;dashed=1;" edge="1" parent="1" source="psgPVx_Mr6GsPkw7rHNx-24" target="psgPVx_Mr6GsPkw7rHNx-84">
          <mxGeometry relative="1" as="geometry">
            <Array as="points">
              <mxPoint x="330" y="300" />
            </Array>
          </mxGeometry>
        </mxCell>
        <mxCell id="psgPVx_Mr6GsPkw7rHNx-89" value="&lt;div&gt;Read&lt;/div&gt;&lt;div&gt;(wait)&lt;/div&gt;" style="edgeLabel;html=1;align=center;verticalAlign=middle;resizable=0;points=[];fillColor=#99C1F1;labelBackgroundColor=#DAE8FC;" vertex="1" connectable="0" parent="psgPVx_Mr6GsPkw7rHNx-88">
          <mxGeometry x="0.0391" relative="1" as="geometry">
            <mxPoint y="-49" as="offset" />
          </mxGeometry>
        </mxCell>
      </root>
    </mxGraphModel>
  </diagram>
</mxfile>
